<?xml version="1.0" encoding="UTF-8"?>
<svg width="150px" height="117px" viewBox="0 0 150 117" version="1.1" xmlns="http://www.w3.org/2000/svg" xmlns:xlink="http://www.w3.org/1999/xlink">
    <title>Untitled</title>
    <g id="Page-1" stroke="none" stroke-width="1" fill="none" fill-rule="evenodd">
        <g id="sidebar.left" transform="translate(-1672.000000, -1462.000000)" fill-rule="nonzero">
            <g id="Notes" fill="#FFFFFF">
                <rect id="artboard" x="0" y="0" width="3300" height="2200"></rect>
            </g>
            <g id="Symbols" transform="translate(487.000000, 622.000000)" fill="#000000">
                <g id="Medium-L" transform="translate(1185.200000, 840.000000)">
                    <path d="M19.9375,116.998 L128.775,116.998 C141.861,116.998 148.648,110.2109 148.648,97.27148 L148.648,20.3672 C148.648,7.4766 141.861,0.6895 128.775,0.6895 L19.9375,0.6895 C6.9004,0.6895 0.0645,7.4277 0.0645,20.3672 L0.0645,97.27148 C0.0645,110.2598 6.9004,116.998 19.9375,116.998 Z M20.5723,106.2559 C14.2246,106.2559 10.8066,102.98438 10.8066,96.39258 L10.8066,21.2949 C10.8066,14.7031 14.2246,11.3828 20.5723,11.3828 L49.1367,11.3828 L49.1367,106.2559 L20.5723,106.2559 Z M128.141,11.3828 C134.391,11.3828 137.906,14.7031 137.906,21.2949 L137.906,96.39258 C137.906,102.98438 134.391,106.2559 128.141,106.2559 L59.3906,106.2559 L59.3906,11.3828 L128.141,11.3828 Z M36.8809,34.5762 C38.8828,34.5762 40.5918,32.8672 40.5918,31.0117 C40.5918,29.0586 38.8828,27.3984 36.8809,27.3984 L23.1602,27.3984 C21.1582,27.3984 19.4492,29.0586 19.4492,31.0117 C19.4492,32.8672 21.1582,34.5762 23.1602,34.5762 L36.8809,34.5762 Z M36.8809,51.5195 C38.8828,51.5195 40.5918,49.8594 40.5918,47.9062 C40.5918,45.9531 38.8828,44.3418 36.8809,44.3418 L23.1602,44.3418 C21.1582,44.3418 19.4492,45.9531 19.4492,47.9062 C19.4492,49.8594 21.1582,51.5195 23.1602,51.5195 L36.8809,51.5195 Z M36.8809,68.4141 C38.8828,68.4141 40.5918,66.8027 40.5918,64.8496 C40.5918,62.8965 38.8828,61.2852 36.8809,61.2852 L23.1602,61.2852 C21.1582,61.2852 19.4492,62.8965 19.4492,64.8496 C19.4492,66.8027 21.1582,68.4141 23.1602,68.4141 L36.8809,68.4141 Z" id="Shape"></path>
                </g>
            </g>
        </g>
    </g>
</svg>